<?xml version="1.0" encoding="iso-8859-1"?>
<!-- Generator: Adobe Illustrator 19.1.0, SVG Export Plug-In . SVG Version: 6.00 Build 0)  -->
<svg version="1.1" id="Capa_1" xmlns="http://www.w3.org/2000/svg" xmlns:xlink="http://www.w3.org/1999/xlink" x="0px" y="0px"
	 viewBox="0 0 63 63" style="enable-background:new 0 0 63 63;" xml:space="preserve">
<g>
	<g id="group-17svg">
		<path id="path-1_7_" d="M27.286,20.191c-5.661,0-10.202-4.434-10.202-10.096C17.084,4.434,21.679,0,27.34,0
			C28.168,0,29,0.672,29,1.5v17.191C29,19.52,28.114,20.191,27.286,20.191z M26,3.145c-4,0.652-5.596,3.424-5.596,6.95
			c0,3.528,1.596,6.299,5.596,6.951V3.145z"/>
		<path id="path-2_7_" d="M33.573,8.144h-6c-0.828,0-1.5-0.671-1.5-1.5c0-0.828,0.672-1.5,1.5-1.5h6c0.828,0,1.5,0.672,1.5,1.5
			C35.073,7.473,34.401,8.144,33.573,8.144z"/>
		<path id="path-3_7_" d="M33.573,15.144h-6c-0.828,0-1.5-0.671-1.5-1.5c0-0.828,0.672-1.5,1.5-1.5h6c0.828,0,1.5,0.672,1.5,1.5
			C35.073,14.473,34.401,15.144,33.573,15.144z"/>
		<path id="path-4_5_" d="M2.5,48.644c-0.828,0-1.5-0.671-1.5-1.5V26.349c0-2.724,2.019-5.205,4.705-5.205h0.18
			C6.958,21.144,8,20.535,8,19.472v-5.626c0-2.904,2.343-4.702,4.908-4.702h4.665c0.828,0,1.5,0.672,1.5,1.5
			c0,0.829-0.672,1.5-1.5,1.5h-4.665c-1.104,0-1.908,0.699-1.908,1.702v5.626c0,2.707-2.398,4.672-5.115,4.672h-0.18
			C4.649,24.144,4,25.257,4,26.349v20.795C4,47.973,3.328,48.644,2.5,48.644z"/>
		<path id="path-5_4_" d="M56.629,57.144h-2.056c-0.828,0-1.5-0.671-1.5-1.5c0-0.828,0.672-1.5,1.5-1.5h2.056
			c0.48,0,2.371,0,2.371-2.264v-3.831c0-3.347-2.527-6.905-6.421-6.905H9.935C6.428,41.144,4,44.241,4,48.049v3.831
			c0,1.397,0.459,2.264,1.885,2.264h2.688c0.828,0,1.5,0.672,1.5,1.5c0,0.829-0.672,1.5-1.5,1.5H5.885C2.807,57.144,1,54.93,1,51.88
			v-3.831c0-5.462,3.773-9.905,8.935-9.905h42.644c5.043,0,9.421,4.351,9.421,9.905v3.831C62,55.028,59.586,57.144,56.629,57.144z"
			/>
		<path id="path-6_1_" d="M41.573,57.144h-21c-0.828,0-1.5-0.671-1.5-1.5c0-0.828,0.672-1.5,1.5-1.5h21c0.828,0,1.5,0.672,1.5,1.5
			C43.073,56.473,42.401,57.144,41.573,57.144z"/>
		<path id="path-7_1_" d="M44.267,40.075c-0.829,0-1.5-0.672-1.5-1.5c0-5.994-6.727-10.87-14.995-10.87
			c-8.267,0-14.994,4.876-14.994,10.87c0,0.828-0.672,1.5-1.5,1.5s-1.5-0.672-1.5-1.5c0-7.648,8.073-13.87,17.994-13.87
			c9.922,0,17.995,6.222,17.995,13.87C45.767,39.403,45.095,40.075,44.267,40.075z"/>
		<path id="path-8" d="M48.163,63c-3.991,0-7.238-3.247-7.238-7.239c0-3.991,3.247-7.238,7.238-7.238s7.238,3.247,7.238,7.238
			C55.401,59.753,52.154,63,48.163,63z M48.163,51.523c-2.337,0-4.238,1.901-4.238,4.238c0,2.337,1.901,4.239,4.238,4.239
			c2.337,0,4.238-1.902,4.238-4.239C52.401,53.424,50.5,51.523,48.163,51.523z"/>
		<path id="path-9" d="M14.745,63c-3.991,0-7.238-3.247-7.238-7.239c0-3.991,3.247-7.238,7.238-7.238s7.238,3.247,7.238,7.238
			C21.983,59.753,18.736,63,14.745,63z M14.745,51.523c-2.337,0-4.238,1.901-4.238,4.238c0,2.337,1.901,4.239,4.238,4.239
			s4.238-1.902,4.238-4.239C18.983,53.424,17.082,51.523,14.745,51.523z"/>
		<path id="path-10" d="M27.5,40.644c-0.828,0-1.5-0.671-1.5-1.5v-13c0-0.828,0.672-1.5,1.5-1.5s1.5,0.672,1.5,1.5v13
			C29,39.973,28.328,40.644,27.5,40.644z"/>
		<path id="path-11" d="M59.573,47.144h-4c-0.828,0-1.5-0.671-1.5-1.5c0-0.828,0.672-1.5,1.5-1.5h4c0.828,0,1.5,0.672,1.5,1.5
			C61.073,46.473,60.401,47.144,59.573,47.144z"/>
	</g>
</g>
<g>
</g>
<g>
</g>
<g>
</g>
<g>
</g>
<g>
</g>
<g>
</g>
<g>
</g>
<g>
</g>
<g>
</g>
<g>
</g>
<g>
</g>
<g>
</g>
<g>
</g>
<g>
</g>
<g>
</g>
</svg>
